<svg xmlns="http://www.w3.org/2000/svg" xmlns:xlink="http://www.w3.org/1999/xlink" width="256" height="256" viewBox="0 0 256 256"><defs><clipPath id="clip-xml_logo"><rect width="256" height="256"/></clipPath></defs><g id="xml_logo" clip-path="url(#clip-xml_logo)" data-name="xml logo"><rect width="256" height="256" fill="rgba(255,255,255,0)"/><g id="Group_3228" data-name="Group 3228" transform="translate(-1233.007 -232.889)"><path id="Path_1371" fill="#057eac" d="M124.735,0A124.735,124.735,0,1,1,0,124.735,124.735,124.735,0,0,1,124.735,0Z" data-name="Path 1371" transform="translate(1236.007 235.888)"/><path id="Path_1365" fill="#078bbd" d="M1287.007,422.188l165.2-81.2,27.7,56.635a124.754,124.754,0,1,0-122.666,87.709Z" data-name="Path 1365"/></g><g id="Group_3229" data-name="Group 3229" transform="translate(-314.041 -94.607)"><g id="Group_3214" data-name="Group 3214" transform="translate(404.24 161.407)"><path id="Path_1359" fill="#e9e8e8" d="M429.571,161.407H379.925a12.709,12.709,0,0,0-12.683,12.7V189a12.64,12.64,0,0,0,8.607,11.991,12.262,12.262,0,0,0,4.076.692h49.646a12.292,12.292,0,0,0,4.079-.692,12.637,12.637,0,0,0,8.6-11.991V174.108A12.709,12.709,0,0,0,429.571,161.407ZM431.029,189a1.485,1.485,0,0,1-1.459,1.459H379.925A1.473,1.473,0,0,1,378.466,189V174.108a1.48,1.48,0,0,1,1.459-1.48h49.646a1.492,1.492,0,0,1,1.459,1.48Z" data-name="Path 1359" transform="translate(-367.242 -161.407)"/></g><path id="Path_1360" fill="#f8f8f8" d="M525.454,179.61,516.1,259.034a10.208,10.208,0,0,1-10.172,10.178H370.348a10.211,10.211,0,0,1-10.178-10.178l-9.353-79.424a10.208,10.208,0,0,1,10.178-10.172H515.279A10.207,10.207,0,0,1,525.454,179.61Z" data-name="Path 1360" transform="translate(3.61 16.325)"/><path id="Rectangle_456" fill="#d7dcdd" d="M1.2,0H167a1.2,1.2,0,0,1,1.2,1.2V20.178a1.2,1.2,0,0,1-1.2,1.2H1.2a1.2,1.2,0,0,1-1.2-1.2V1.2A1.2,1.2,0,0,1,1.2,0Z" data-name="Rectangle 456" transform="translate(357.643 204.115)"/><path id="Rectangle_457" fill="#e9eef0" d="M1.2,0H184.209a1.2,1.2,0,0,1,1.2,1.2V20.178a1.2,1.2,0,0,1-1.2,1.2H1.2a1.2,1.2,0,0,1-1.2-1.2V1.2A1.2,1.2,0,0,1,1.2,0Z" data-name="Rectangle 457" transform="translate(349.041 200.987)"/><g id="Group_3220" data-name="Group 3220" transform="translate(428.138 211.687)"><path id="Path_1361" fill="#b8babb" d="M388.323,180.194v13.523a2.243,2.243,0,0,1-2.226,2.226H361.966a2.227,2.227,0,0,1-2.2-2.226V180.194a2.211,2.211,0,0,1,2.2-2.208H386.1A2.228,2.228,0,0,1,388.323,180.194Z" data-name="Path 1361" transform="translate(-359.761 -177.986)"/><path id="Path_1362" fill="#caced0" d="M388.323,180.194v7.427H359.761v-7.427a2.211,2.211,0,0,1,2.2-2.208H386.1A2.228,2.228,0,0,1,388.323,180.194Z" data-name="Path 1362" transform="translate(-359.761 -177.986)"/></g></g><g id="Group_3230" data-name="Group 3230" transform="translate(-266.384 -391.24)"><path id="Path_1348" fill="none" stroke="#078bbd" stroke-linecap="round" stroke-width="8" d="M-473.755-15995.278l-9.924,31.249" data-name="Path 1348" transform="translate(871.165 16534.207)"/><path id="Path_1349" fill="none" stroke="#078bbd" stroke-linecap="round" stroke-linejoin="round" stroke-width="8" d="M-483.469-15992.2l-14.131,12.7,14.131,11.69" data-name="Path 1349" transform="translate(856.984 16534.459)"/><path id="Path_1350" fill="none" stroke="#078bbd" stroke-linecap="round" stroke-linejoin="round" stroke-width="8" d="M14.131,0,0,12.7,14.131,24.387" data-name="Path 1350" transform="translate(428.717 566.648) rotate(180)"/></g></g></svg>